<mxfile host="app.diagrams.net" agent="Mozilla/5.0 (Macintosh; Intel Mac OS X 10_15_7) AppleWebKit/605.1.15 (KHTML, like Gecko) Version/18.0 Safari/605.1.15" version="24.8.4">
  <diagram id="Ht1M8jgEwFfnCIfOTk4-" name="Page-1">
    <mxGraphModel dx="1488" dy="1991" grid="1" gridSize="10" guides="1" tooltips="1" connect="1" arrows="1" fold="1" page="1" pageScale="1" pageWidth="1169" pageHeight="827" math="0" shadow="0">
      <root>
        <mxCell id="0" />
        <mxCell id="1" parent="0" />
        <object placeholders="1" c4Name="Internal Events Domain" c4Type="ContainerScopeBoundary" c4Application="Domain Boundary" label="&lt;font style=&quot;font-size: 16px&quot;&gt;&lt;b&gt;&lt;div style=&quot;text-align: left&quot;&gt;%c4Name%&lt;/div&gt;&lt;/b&gt;&lt;/font&gt;&lt;div style=&quot;text-align: left&quot;&gt;[%c4Application%]&lt;/div&gt;" id="5TsWH3uMzf2Ny8_OYMp1-9">
          <mxCell style="rounded=1;fontSize=11;whiteSpace=wrap;html=1;dashed=1;arcSize=20;fillColor=none;strokeColor=#007FFF;fontColor=#333333;labelBackgroundColor=none;align=left;verticalAlign=bottom;labelBorderColor=none;spacingTop=0;spacing=10;metaEdit=1;rotatable=0;perimeter=rectanglePerimeter;noLabel=0;labelPadding=0;allowArrows=0;connectable=0;expand=0;recursiveResize=0;editable=1;pointerEvents=0;absoluteArcSize=1;points=[[0.25,0,0],[0.5,0,0],[0.75,0,0],[1,0.25,0],[1,0.5,0],[1,0.75,0],[0.75,1,0],[0.5,1,0],[0.25,1,0],[0,0.75,0],[0,0.5,0],[0,0.25,0]];strokeWidth=2;" vertex="1" parent="1">
            <mxGeometry x="700" y="-820" width="430" height="774" as="geometry" />
          </mxCell>
        </object>
        <object placeholders="1" c4Name="External Events Domain" c4Type="ContainerScopeBoundary" c4Application="Domain Boundary" label="&lt;font style=&quot;font-size: 16px&quot;&gt;&lt;b&gt;&lt;div style=&quot;text-align: left&quot;&gt;%c4Name%&lt;/div&gt;&lt;/b&gt;&lt;/font&gt;&lt;div style=&quot;text-align: left&quot;&gt;[%c4Application%]&lt;/div&gt;" id="5TsWH3uMzf2Ny8_OYMp1-8">
          <mxCell style="rounded=1;fontSize=11;whiteSpace=wrap;html=1;dashed=1;arcSize=20;fillColor=none;strokeColor=#CC0000;fontColor=#333333;labelBackgroundColor=none;align=left;verticalAlign=bottom;labelBorderColor=none;spacingTop=0;spacing=10;metaEdit=1;rotatable=0;perimeter=rectanglePerimeter;noLabel=0;labelPadding=0;allowArrows=0;connectable=0;expand=0;recursiveResize=0;editable=1;pointerEvents=0;absoluteArcSize=1;points=[[0.25,0,0],[0.5,0,0],[0.75,0,0],[1,0.25,0],[1,0.5,0],[1,0.75,0],[0.75,1,0],[0.5,1,0],[0.25,1,0],[0,0.75,0],[0,0.5,0],[0,0.25,0]];strokeWidth=2;" vertex="1" parent="1">
            <mxGeometry x="180" y="-820" width="510" height="774" as="geometry" />
          </mxCell>
        </object>
        <mxCell id="UEzPUAAOIrF-is8g5C7q-176" value="Stampen Azure Subscription" style="points=[[0,0],[0.25,0],[0.5,0],[0.75,0],[1,0],[1,0.25],[1,0.5],[1,0.75],[1,1],[0.75,1],[0.5,1],[0.25,1],[0,1],[0,0.75],[0,0.5],[0,0.25]];outlineConnect=0;gradientColor=none;html=1;whiteSpace=wrap;fontSize=12;fontStyle=0;shape=mxgraph.aws4.group;grIcon=mxgraph.aws4.group_aws_cloud_alt;strokeColor=#232F3E;fillColor=default;verticalAlign=top;align=left;spacingLeft=30;fontColor=#232F3E;dashed=0;labelBackgroundColor=#ffffff;container=1;pointerEvents=0;collapsible=0;recursiveResize=0;movable=1;resizable=1;rotatable=1;deletable=1;editable=1;locked=0;connectable=1;" parent="1" vertex="1">
          <mxGeometry x="220" y="-790" width="220" height="310" as="geometry" />
        </mxCell>
        <mxCell id="x4RVm9M96yjkWzXjifI6-36" value="" style="image;aspect=fixed;html=1;points=[];align=center;fontSize=12;image=img/lib/azure2/analytics/Azure_Databricks.svg;" parent="UEzPUAAOIrF-is8g5C7q-176" vertex="1">
          <mxGeometry x="27.82" y="42" width="62.8" height="68" as="geometry" />
        </mxCell>
        <mxCell id="x4RVm9M96yjkWzXjifI6-92" value="" style="image;aspect=fixed;html=1;points=[];align=center;fontSize=12;image=img/lib/azure2/other/Azure_A.svg;imageBackground=default;" parent="UEzPUAAOIrF-is8g5C7q-176" vertex="1">
          <mxGeometry x="-4" y="-4" width="31.82" height="30" as="geometry" />
        </mxCell>
        <mxCell id="5TsWH3uMzf2Ny8_OYMp1-1" value="Spark Kafka&amp;nbsp;&lt;div&gt;connector&lt;/div&gt;" style="sketch=0;points=[[0,0,0],[0.25,0,0],[0.5,0,0],[0.75,0,0],[1,0,0],[0,1,0],[0.25,1,0],[0.5,1,0],[0.75,1,0],[1,1,0],[0,0.25,0],[0,0.5,0],[0,0.75,0],[1,0.25,0],[1,0.5,0],[1,0.75,0]];outlineConnect=0;fontColor=#232F3E;fillColor=#8C4FFF;strokeColor=#ffffff;dashed=0;verticalLabelPosition=bottom;verticalAlign=top;align=center;html=1;fontSize=12;fontStyle=0;aspect=fixed;shape=mxgraph.aws4.resourceIcon;resIcon=mxgraph.aws4.managed_streaming_for_kafka;" vertex="1" parent="UEzPUAAOIrF-is8g5C7q-176">
          <mxGeometry x="30" y="170" width="40" height="40" as="geometry" />
        </mxCell>
        <mxCell id="5TsWH3uMzf2Ny8_OYMp1-7" value="" style="edgeStyle=orthogonalEdgeStyle;rounded=0;orthogonalLoop=1;jettySize=auto;html=1;" edge="1" parent="UEzPUAAOIrF-is8g5C7q-176" source="5TsWH3uMzf2Ny8_OYMp1-2" target="5TsWH3uMzf2Ny8_OYMp1-5">
          <mxGeometry relative="1" as="geometry" />
        </mxCell>
        <mxCell id="5TsWH3uMzf2Ny8_OYMp1-2" value="Azure Event&amp;nbsp;&lt;div&gt;Hubs&lt;/div&gt;" style="image;aspect=fixed;html=1;points=[];align=center;fontSize=12;image=img/lib/azure2/analytics/Event_Hubs.svg;" vertex="1" parent="UEzPUAAOIrF-is8g5C7q-176">
          <mxGeometry x="135" y="170" width="50" height="44.78" as="geometry" />
        </mxCell>
        <mxCell id="5TsWH3uMzf2Ny8_OYMp1-3" style="edgeStyle=orthogonalEdgeStyle;rounded=0;orthogonalLoop=1;jettySize=auto;html=1;startArrow=none;startFill=0;exitX=1;exitY=0.5;exitDx=0;exitDy=0;exitPerimeter=0;entryX=-0.023;entryY=0.443;entryDx=0;entryDy=0;entryPerimeter=0;" edge="1" parent="UEzPUAAOIrF-is8g5C7q-176" source="5TsWH3uMzf2Ny8_OYMp1-1" target="5TsWH3uMzf2Ny8_OYMp1-2">
          <mxGeometry relative="1" as="geometry">
            <mxPoint x="128" y="200" as="targetPoint" />
          </mxGeometry>
        </mxCell>
        <mxCell id="x4RVm9M96yjkWzXjifI6-37" value="DataBricks&amp;nbsp;&lt;div&gt;Events&lt;/div&gt;" style="edgeStyle=orthogonalEdgeStyle;rounded=0;orthogonalLoop=1;jettySize=auto;html=1;entryX=0.5;entryY=0;entryDx=0;entryDy=0;entryPerimeter=0;" parent="UEzPUAAOIrF-is8g5C7q-176" source="x4RVm9M96yjkWzXjifI6-36" target="5TsWH3uMzf2Ny8_OYMp1-1" edge="1">
          <mxGeometry x="0.0162" y="1" relative="1" as="geometry">
            <Array as="points">
              <mxPoint x="51" y="80" />
              <mxPoint x="51" y="120" />
              <mxPoint x="50" y="120" />
            </Array>
            <mxPoint as="offset" />
            <mxPoint x="-180" y="300" as="sourcePoint" />
            <mxPoint x="-200" y="470" as="targetPoint" />
          </mxGeometry>
        </mxCell>
        <mxCell id="5TsWH3uMzf2Ny8_OYMp1-5" value="" style="sketch=0;points=[[0,0,0],[0.25,0,0],[0.5,0,0],[0.75,0,0],[1,0,0],[0,1,0],[0.25,1,0],[0.5,1,0],[0.75,1,0],[1,1,0],[0,0.25,0],[0,0.5,0],[0,0.75,0],[1,0.25,0],[1,0.5,0],[1,0.75,0]];outlineConnect=0;fontColor=#232F3E;fillColor=#8C4FFF;strokeColor=#ffffff;dashed=0;verticalLabelPosition=bottom;verticalAlign=top;align=center;html=1;fontSize=12;fontStyle=0;aspect=fixed;shape=mxgraph.aws4.resourceIcon;resIcon=mxgraph.aws4.managed_streaming_for_kafka;" vertex="1" parent="UEzPUAAOIrF-is8g5C7q-176">
          <mxGeometry x="140" y="110" width="40" height="40" as="geometry" />
        </mxCell>
        <mxCell id="x4RVm9M96yjkWzXjifI6-38" value="Inbound&amp;nbsp;&lt;div&gt;Events&lt;/div&gt;" style="edgeStyle=orthogonalEdgeStyle;rounded=0;orthogonalLoop=1;jettySize=auto;html=1;exitX=0.5;exitY=0;exitDx=0;exitDy=0;exitPerimeter=0;" parent="UEzPUAAOIrF-is8g5C7q-176" source="5TsWH3uMzf2Ny8_OYMp1-5" target="x4RVm9M96yjkWzXjifI6-36" edge="1">
          <mxGeometry x="-0.2612" relative="1" as="geometry">
            <mxPoint x="286" y="56" as="targetPoint" />
            <Array as="points">
              <mxPoint x="160" y="70" />
            </Array>
            <mxPoint as="offset" />
            <mxPoint x="365" y="50.0009" as="sourcePoint" />
          </mxGeometry>
        </mxCell>
        <mxCell id="UEzPUAAOIrF-is8g5C7q-185" value="Stampen Event Bus Account" style="points=[[0,0],[0.25,0],[0.5,0],[0.75,0],[1,0],[1,0.25],[1,0.5],[1,0.75],[1,1],[0.75,1],[0.5,1],[0.25,1],[0,1],[0,0.75],[0,0.5],[0,0.25]];outlineConnect=0;gradientColor=none;html=1;whiteSpace=wrap;fontSize=12;fontStyle=0;shape=mxgraph.aws4.group;grIcon=mxgraph.aws4.group_aws_cloud_alt;strokeColor=#232F3E;fillColor=default;verticalAlign=top;align=left;spacingLeft=30;fontColor=#232F3E;dashed=0;labelBackgroundColor=#ffffff;container=1;pointerEvents=0;collapsible=0;recursiveResize=0;" parent="1" vertex="1">
          <mxGeometry x="590" y="-650" width="230" height="310" as="geometry" />
        </mxCell>
        <mxCell id="x4RVm9M96yjkWzXjifI6-2" value="EventBridge" style="sketch=0;points=[[0,0,0],[0.25,0,0],[0.5,0,0],[0.75,0,0],[1,0,0],[0,1,0],[0.25,1,0],[0.5,1,0],[0.75,1,0],[1,1,0],[0,0.25,0],[0,0.5,0],[0,0.75,0],[1,0.25,0],[1,0.5,0],[1,0.75,0]];outlineConnect=0;fontColor=#232F3E;fillColor=#E7157B;strokeColor=#ffffff;dashed=0;verticalLabelPosition=bottom;verticalAlign=top;align=center;html=1;fontSize=12;fontStyle=0;aspect=fixed;shape=mxgraph.aws4.resourceIcon;resIcon=mxgraph.aws4.eventbridge;" parent="UEzPUAAOIrF-is8g5C7q-185" vertex="1">
          <mxGeometry x="150" y="130" width="50" height="50" as="geometry" />
        </mxCell>
        <mxCell id="x4RVm9M96yjkWzXjifI6-1" value="API Gateway" style="sketch=0;points=[[0,0,0],[0.25,0,0],[0.5,0,0],[0.75,0,0],[1,0,0],[0,1,0],[0.25,1,0],[0.5,1,0],[0.75,1,0],[1,1,0],[0,0.25,0],[0,0.5,0],[0,0.75,0],[1,0.25,0],[1,0.5,0],[1,0.75,0]];outlineConnect=0;fontColor=#232F3E;fillColor=#E7157B;strokeColor=#ffffff;dashed=0;verticalLabelPosition=bottom;verticalAlign=top;align=center;html=1;fontSize=12;fontStyle=0;aspect=fixed;shape=mxgraph.aws4.resourceIcon;resIcon=mxgraph.aws4.api_gateway;" parent="UEzPUAAOIrF-is8g5C7q-185" vertex="1">
          <mxGeometry x="38" y="130" width="50" height="50" as="geometry" />
        </mxCell>
        <mxCell id="x4RVm9M96yjkWzXjifI6-20" style="edgeStyle=orthogonalEdgeStyle;rounded=0;orthogonalLoop=1;jettySize=auto;html=1;entryX=0.25;entryY=0;entryDx=0;entryDy=0;entryPerimeter=0;exitX=0.5;exitY=0;exitDx=0;exitDy=0;exitPerimeter=0;" parent="UEzPUAAOIrF-is8g5C7q-185" source="x4RVm9M96yjkWzXjifI6-1" target="x4RVm9M96yjkWzXjifI6-2" edge="1">
          <mxGeometry relative="1" as="geometry">
            <mxPoint x="63" y="120" as="sourcePoint" />
            <Array as="points">
              <mxPoint x="63" y="100" />
              <mxPoint x="163" y="100" />
            </Array>
          </mxGeometry>
        </mxCell>
        <mxCell id="x4RVm9M96yjkWzXjifI6-27" value="Inbound&amp;nbsp;&lt;div&gt;External&amp;nbsp;&lt;div&gt;Events&lt;/div&gt;&lt;/div&gt;" style="edgeLabel;html=1;align=center;verticalAlign=middle;resizable=0;points=[];" parent="x4RVm9M96yjkWzXjifI6-20" vertex="1" connectable="0">
          <mxGeometry x="-0.2667" y="1" relative="1" as="geometry">
            <mxPoint x="22" y="1" as="offset" />
          </mxGeometry>
        </mxCell>
        <mxCell id="x4RVm9M96yjkWzXjifI6-28" style="edgeStyle=orthogonalEdgeStyle;rounded=0;orthogonalLoop=1;jettySize=auto;html=1;entryX=1;entryY=0.5;entryDx=0;entryDy=0;entryPerimeter=0;exitX=0.5;exitY=1;exitDx=0;exitDy=0;exitPerimeter=0;" parent="UEzPUAAOIrF-is8g5C7q-185" source="x4RVm9M96yjkWzXjifI6-2" target="x4RVm9M96yjkWzXjifI6-1" edge="1">
          <mxGeometry relative="1" as="geometry">
            <Array as="points">
              <mxPoint x="175" y="230" />
              <mxPoint x="110" y="230" />
              <mxPoint x="110" y="155" />
            </Array>
          </mxGeometry>
        </mxCell>
        <mxCell id="x4RVm9M96yjkWzXjifI6-51" value="Outbound&lt;div&gt;External&amp;nbsp;&lt;/div&gt;&lt;div&gt;Events&lt;/div&gt;" style="edgeLabel;html=1;align=center;verticalAlign=middle;resizable=0;points=[];" parent="x4RVm9M96yjkWzXjifI6-28" vertex="1" connectable="0">
          <mxGeometry x="-0.1613" relative="1" as="geometry">
            <mxPoint x="4" as="offset" />
          </mxGeometry>
        </mxCell>
        <mxCell id="UEzPUAAOIrF-is8g5C7q-186" value="Stampen Application Accounts" style="points=[[0,0],[0.25,0],[0.5,0],[0.75,0],[1,0],[1,0.25],[1,0.5],[1,0.75],[1,1],[0.75,1],[0.5,1],[0.25,1],[0,1],[0,0.75],[0,0.5],[0,0.25]];outlineConnect=0;gradientColor=none;html=1;whiteSpace=wrap;fontSize=12;fontStyle=0;shape=mxgraph.aws4.group;grIcon=mxgraph.aws4.group_aws_cloud_alt;strokeColor=#232F3E;fillColor=default;verticalAlign=top;align=left;spacingLeft=30;fontColor=#232F3E;dashed=0;labelBackgroundColor=#ffffff;container=1;pointerEvents=0;collapsible=0;recursiveResize=0;" parent="1" vertex="1">
          <mxGeometry x="880" y="-650" width="230" height="310" as="geometry" />
        </mxCell>
        <mxCell id="x4RVm9M96yjkWzXjifI6-7" value="EC2s" style="sketch=0;points=[[0,0,0],[0.25,0,0],[0.5,0,0],[0.75,0,0],[1,0,0],[0,1,0],[0.25,1,0],[0.5,1,0],[0.75,1,0],[1,1,0],[0,0.25,0],[0,0.5,0],[0,0.75,0],[1,0.25,0],[1,0.5,0],[1,0.75,0]];outlineConnect=0;fontColor=#232F3E;fillColor=#ED7100;strokeColor=#ffffff;dashed=0;verticalLabelPosition=bottom;verticalAlign=top;align=center;html=1;fontSize=12;fontStyle=0;aspect=fixed;shape=mxgraph.aws4.resourceIcon;resIcon=mxgraph.aws4.ec2;resizeWidth=0;resizeHeight=0;autosize=0;fixedWidth=0;" parent="UEzPUAAOIrF-is8g5C7q-186" vertex="1">
          <mxGeometry x="160" y="110" width="40" height="40" as="geometry" />
        </mxCell>
        <mxCell id="x4RVm9M96yjkWzXjifI6-8" value="Lambdas" style="sketch=0;points=[[0,0,0],[0.25,0,0],[0.5,0,0],[0.75,0,0],[1,0,0],[0,1,0],[0.25,1,0],[0.5,1,0],[0.75,1,0],[1,1,0],[0,0.25,0],[0,0.5,0],[0,0.75,0],[1,0.25,0],[1,0.5,0],[1,0.75,0]];outlineConnect=0;fontColor=#232F3E;fillColor=#ED7100;strokeColor=#ffffff;dashed=0;verticalLabelPosition=bottom;verticalAlign=top;align=center;html=1;fontSize=12;fontStyle=0;aspect=fixed;shape=mxgraph.aws4.resourceIcon;resIcon=mxgraph.aws4.lambda;resizeWidth=0;resizeHeight=0;autosize=0;fixedWidth=0;" parent="UEzPUAAOIrF-is8g5C7q-186" vertex="1">
          <mxGeometry x="160" y="40" width="40" height="40" as="geometry" />
        </mxCell>
        <mxCell id="x4RVm9M96yjkWzXjifI6-9" value="S3 buckets" style="sketch=0;points=[[0,0,0],[0.25,0,0],[0.5,0,0],[0.75,0,0],[1,0,0],[0,1,0],[0.25,1,0],[0.5,1,0],[0.75,1,0],[1,1,0],[0,0.25,0],[0,0.5,0],[0,0.75,0],[1,0.25,0],[1,0.5,0],[1,0.75,0]];outlineConnect=0;fontColor=#232F3E;fillColor=#7AA116;strokeColor=#ffffff;dashed=0;verticalLabelPosition=bottom;verticalAlign=top;align=center;html=1;fontSize=12;fontStyle=0;aspect=fixed;shape=mxgraph.aws4.resourceIcon;resIcon=mxgraph.aws4.s3;resizeWidth=0;resizeHeight=0;autosize=0;fixedWidth=0;" parent="UEzPUAAOIrF-is8g5C7q-186" vertex="1">
          <mxGeometry x="160" y="247.5" width="40" height="40" as="geometry" />
        </mxCell>
        <mxCell id="x4RVm9M96yjkWzXjifI6-15" value="DynamoDBs" style="sketch=0;points=[[0,0,0],[0.25,0,0],[0.5,0,0],[0.75,0,0],[1,0,0],[0,1,0],[0.25,1,0],[0.5,1,0],[0.75,1,0],[1,1,0],[0,0.25,0],[0,0.5,0],[0,0.75,0],[1,0.25,0],[1,0.5,0],[1,0.75,0]];outlineConnect=0;fontColor=#232F3E;fillColor=#C925D1;strokeColor=#ffffff;dashed=0;verticalLabelPosition=bottom;verticalAlign=top;align=center;html=1;fontSize=12;fontStyle=0;aspect=fixed;shape=mxgraph.aws4.resourceIcon;resIcon=mxgraph.aws4.dynamodb;resizeWidth=0;resizeHeight=0;autosize=0;fixedWidth=0;" parent="UEzPUAAOIrF-is8g5C7q-186" vertex="1">
          <mxGeometry x="160" y="180" width="40" height="40" as="geometry" />
        </mxCell>
        <mxCell id="x4RVm9M96yjkWzXjifI6-23" value="EventBridge" style="sketch=0;points=[[0,0,0],[0.25,0,0],[0.5,0,0],[0.75,0,0],[1,0,0],[0,1,0],[0.25,1,0],[0.5,1,0],[0.75,1,0],[1,1,0],[0,0.25,0],[0,0.5,0],[0,0.75,0],[1,0.25,0],[1,0.5,0],[1,0.75,0]];outlineConnect=0;fontColor=#232F3E;fillColor=#E7157B;strokeColor=#ffffff;dashed=0;verticalLabelPosition=bottom;verticalAlign=top;align=center;html=1;fontSize=12;fontStyle=0;aspect=fixed;shape=mxgraph.aws4.resourceIcon;resIcon=mxgraph.aws4.eventbridge;" parent="UEzPUAAOIrF-is8g5C7q-186" vertex="1">
          <mxGeometry x="30" y="130" width="50" height="50" as="geometry" />
        </mxCell>
        <mxCell id="x4RVm9M96yjkWzXjifI6-16" style="edgeStyle=orthogonalEdgeStyle;rounded=0;orthogonalLoop=1;jettySize=auto;html=1;entryX=1;entryY=0.5;entryDx=0;entryDy=0;entryPerimeter=0;startArrow=classic;startFill=1;" parent="UEzPUAAOIrF-is8g5C7q-186" source="x4RVm9M96yjkWzXjifI6-15" target="x4RVm9M96yjkWzXjifI6-23" edge="1">
          <mxGeometry relative="1" as="geometry">
            <mxPoint x="100" y="87" as="targetPoint" />
          </mxGeometry>
        </mxCell>
        <mxCell id="x4RVm9M96yjkWzXjifI6-13" style="edgeStyle=orthogonalEdgeStyle;rounded=0;orthogonalLoop=1;jettySize=auto;html=1;exitX=0;exitY=0.5;exitDx=0;exitDy=0;exitPerimeter=0;entryX=1;entryY=0.5;entryDx=0;entryDy=0;entryPerimeter=0;startArrow=classic;startFill=1;" parent="UEzPUAAOIrF-is8g5C7q-186" source="x4RVm9M96yjkWzXjifI6-8" target="x4RVm9M96yjkWzXjifI6-23" edge="1">
          <mxGeometry relative="1" as="geometry">
            <mxPoint x="100" y="87" as="targetPoint" />
          </mxGeometry>
        </mxCell>
        <mxCell id="x4RVm9M96yjkWzXjifI6-14" style="edgeStyle=orthogonalEdgeStyle;rounded=0;orthogonalLoop=1;jettySize=auto;html=1;exitX=0;exitY=0.5;exitDx=0;exitDy=0;exitPerimeter=0;entryX=1;entryY=0.5;entryDx=0;entryDy=0;entryPerimeter=0;startArrow=classic;startFill=1;" parent="UEzPUAAOIrF-is8g5C7q-186" source="x4RVm9M96yjkWzXjifI6-9" target="x4RVm9M96yjkWzXjifI6-23" edge="1">
          <mxGeometry relative="1" as="geometry">
            <mxPoint x="100" y="87" as="targetPoint" />
          </mxGeometry>
        </mxCell>
        <mxCell id="x4RVm9M96yjkWzXjifI6-12" style="edgeStyle=orthogonalEdgeStyle;rounded=0;orthogonalLoop=1;jettySize=auto;html=1;exitX=0;exitY=0.5;exitDx=0;exitDy=0;exitPerimeter=0;entryX=1;entryY=0.5;entryDx=0;entryDy=0;entryPerimeter=0;startArrow=classic;startFill=1;" parent="UEzPUAAOIrF-is8g5C7q-186" source="x4RVm9M96yjkWzXjifI6-7" target="x4RVm9M96yjkWzXjifI6-23" edge="1">
          <mxGeometry relative="1" as="geometry">
            <mxPoint x="100" y="87" as="targetPoint" />
          </mxGeometry>
        </mxCell>
        <mxCell id="x4RVm9M96yjkWzXjifI6-10" style="edgeStyle=orthogonalEdgeStyle;rounded=0;orthogonalLoop=1;jettySize=auto;html=1;exitX=0.5;exitY=0;exitDx=0;exitDy=0;exitPerimeter=0;entryX=0.75;entryY=0;entryDx=0;entryDy=0;entryPerimeter=0;" parent="1" source="x4RVm9M96yjkWzXjifI6-23" target="x4RVm9M96yjkWzXjifI6-2" edge="1">
          <mxGeometry relative="1" as="geometry">
            <mxPoint x="910" y="-610" as="sourcePoint" />
            <Array as="points">
              <mxPoint x="935" y="-550" />
              <mxPoint x="778" y="-550" />
            </Array>
          </mxGeometry>
        </mxCell>
        <mxCell id="x4RVm9M96yjkWzXjifI6-17" value="Outbound&amp;nbsp;&lt;div&gt;Internal&amp;nbsp;&lt;div&gt;Events&lt;/div&gt;&lt;/div&gt;" style="edgeLabel;html=1;align=center;verticalAlign=middle;resizable=0;points=[];" parent="x4RVm9M96yjkWzXjifI6-10" vertex="1" connectable="0">
          <mxGeometry x="0.0687" y="-3" relative="1" as="geometry">
            <mxPoint x="87" y="-4" as="offset" />
          </mxGeometry>
        </mxCell>
        <mxCell id="x4RVm9M96yjkWzXjifI6-25" value="" style="edgeStyle=orthogonalEdgeStyle;rounded=0;orthogonalLoop=1;jettySize=auto;html=1;entryX=0;entryY=0.5;entryDx=0;entryDy=0;entryPerimeter=0;exitX=1;exitY=0.5;exitDx=0;exitDy=0;exitPerimeter=0;" parent="1" source="x4RVm9M96yjkWzXjifI6-2" target="x4RVm9M96yjkWzXjifI6-23" edge="1">
          <mxGeometry relative="1" as="geometry">
            <mxPoint x="750" y="-530" as="sourcePoint" />
            <mxPoint x="945" y="-593" as="targetPoint" />
            <Array as="points">
              <mxPoint x="850" y="-495" />
              <mxPoint x="850" y="-495" />
            </Array>
          </mxGeometry>
        </mxCell>
        <mxCell id="x4RVm9M96yjkWzXjifI6-26" value="Inbound&lt;div&gt;External&amp;nbsp;&lt;div&gt;Events&lt;/div&gt;&lt;/div&gt;" style="edgeLabel;html=1;align=center;verticalAlign=middle;resizable=0;points=[];" parent="x4RVm9M96yjkWzXjifI6-25" vertex="1" connectable="0">
          <mxGeometry x="-0.3154" y="-1" relative="1" as="geometry">
            <mxPoint x="19" y="-1" as="offset" />
          </mxGeometry>
        </mxCell>
        <mxCell id="x4RVm9M96yjkWzXjifI6-30" value="Third-Party SaaS Clouds" style="points=[[0,0],[0.25,0],[0.5,0],[0.75,0],[1,0],[1,0.25],[1,0.5],[1,0.75],[1,1],[0.75,1],[0.5,1],[0.25,1],[0,1],[0,0.75],[0,0.5],[0,0.25]];outlineConnect=0;gradientColor=none;html=1;whiteSpace=wrap;fontSize=12;fontStyle=0;shape=mxgraph.aws4.group;grIcon=mxgraph.aws4.group_aws_cloud_alt;strokeColor=#232F3E;fillColor=default;verticalAlign=top;align=left;spacingLeft=30;fontColor=#232F3E;dashed=0;labelBackgroundColor=#ffffff;container=0;pointerEvents=0;collapsible=0;recursiveResize=0;movable=1;resizable=1;rotatable=1;deletable=1;editable=1;locked=0;connectable=1;" parent="1" vertex="1">
          <mxGeometry x="220" y="-430" width="220" height="310" as="geometry" />
        </mxCell>
        <mxCell id="x4RVm9M96yjkWzXjifI6-32" style="edgeStyle=orthogonalEdgeStyle;rounded=0;orthogonalLoop=1;jettySize=auto;html=1;entryX=0;entryY=0.5;entryDx=0;entryDy=0;entryPerimeter=0;startArrow=classic;startFill=1;" parent="1" target="x4RVm9M96yjkWzXjifI6-1" edge="1">
          <mxGeometry relative="1" as="geometry">
            <mxPoint x="400" y="-600" as="sourcePoint" />
            <Array as="points">
              <mxPoint x="517" y="-600" />
              <mxPoint x="517" y="-495" />
            </Array>
          </mxGeometry>
        </mxCell>
        <mxCell id="x4RVm9M96yjkWzXjifI6-34" style="edgeStyle=orthogonalEdgeStyle;rounded=0;orthogonalLoop=1;jettySize=auto;html=1;entryX=0;entryY=0.5;entryDx=0;entryDy=0;entryPerimeter=0;startArrow=classic;startFill=1;" parent="1" source="x4RVm9M96yjkWzXjifI6-33" target="x4RVm9M96yjkWzXjifI6-1" edge="1">
          <mxGeometry relative="1" as="geometry" />
        </mxCell>
        <mxCell id="x4RVm9M96yjkWzXjifI6-35" value="Inbound &amp;amp;&amp;nbsp;&lt;div&gt;Outbound&amp;nbsp;&lt;div&gt;External Events&lt;/div&gt;&lt;/div&gt;" style="edgeLabel;html=1;align=center;verticalAlign=middle;resizable=0;points=[];" parent="x4RVm9M96yjkWzXjifI6-34" vertex="1" connectable="0">
          <mxGeometry x="0.5435" y="2" relative="1" as="geometry">
            <mxPoint as="offset" />
          </mxGeometry>
        </mxCell>
        <mxCell id="x4RVm9M96yjkWzXjifI6-42" style="edgeStyle=orthogonalEdgeStyle;rounded=0;orthogonalLoop=1;jettySize=auto;html=1;entryX=0;entryY=0.5;entryDx=0;entryDy=0;exitX=0.5;exitY=1;exitDx=0;exitDy=0;" parent="1" source="x4RVm9M96yjkWzXjifI6-40" target="x4RVm9M96yjkWzXjifI6-33" edge="1">
          <mxGeometry relative="1" as="geometry">
            <mxPoint x="690" y="-240" as="sourcePoint" />
            <Array as="points">
              <mxPoint x="270" y="-270" />
            </Array>
          </mxGeometry>
        </mxCell>
        <mxCell id="x4RVm9M96yjkWzXjifI6-43" value="SaaS&amp;nbsp;&lt;div&gt;Vendor&lt;div&gt;&lt;div&gt;Events&lt;/div&gt;&lt;/div&gt;&lt;/div&gt;" style="edgeLabel;html=1;align=center;verticalAlign=middle;resizable=0;points=[];" parent="x4RVm9M96yjkWzXjifI6-42" vertex="1" connectable="0">
          <mxGeometry x="-0.3742" y="-1" relative="1" as="geometry">
            <mxPoint x="28" y="-1" as="offset" />
          </mxGeometry>
        </mxCell>
        <mxCell id="x4RVm9M96yjkWzXjifI6-40" value="" style="image;aspect=fixed;perimeter=ellipsePerimeter;html=1;align=center;shadow=0;dashed=0;fontColor=#4277BB;labelBackgroundColor=default;fontSize=12;spacingTop=3;image=img/lib/ibm/applications/saas_applications.svg;" parent="1" vertex="1">
          <mxGeometry x="240" y="-360" width="60" height="60" as="geometry" />
        </mxCell>
        <mxCell id="x4RVm9M96yjkWzXjifI6-41" style="edgeStyle=orthogonalEdgeStyle;rounded=0;orthogonalLoop=1;jettySize=auto;html=1;entryX=1;entryY=0.5;entryDx=0;entryDy=0;exitX=0.5;exitY=0;exitDx=0;exitDy=0;" parent="1" source="x4RVm9M96yjkWzXjifI6-33" target="x4RVm9M96yjkWzXjifI6-40" edge="1">
          <mxGeometry relative="1" as="geometry">
            <mxPoint x="316" y="-270" as="targetPoint" />
            <Array as="points">
              <mxPoint x="384" y="-330" />
            </Array>
          </mxGeometry>
        </mxCell>
        <mxCell id="x4RVm9M96yjkWzXjifI6-44" value="Inbound&amp;nbsp;&lt;div&gt;Events&lt;/div&gt;" style="edgeLabel;html=1;align=center;verticalAlign=middle;resizable=0;points=[];" parent="x4RVm9M96yjkWzXjifI6-41" vertex="1" connectable="0">
          <mxGeometry x="0.0794" y="3" relative="1" as="geometry">
            <mxPoint x="-10" y="-3" as="offset" />
          </mxGeometry>
        </mxCell>
        <mxCell id="x4RVm9M96yjkWzXjifI6-33" value="SaaS Vendor &#xa;EventBridge &#xa;Raw Data Adapter" style="shape=image;editableCssRules=.*;verticalLabelPosition=bottom;labelBackgroundColor=default;verticalAlign=top;aspect=fixed;imageAspect=0;image=data:image/svg+xml,PHN2ZyB4bWxucz0iaHR0cDovL3d3dy53My5vcmcvMjAwMC9zdmciIHZpZXdCb3g9Ii0wLjUgLTAuNSAyOCAyNy44OSIgaGVpZ2h0PSIyNy44OSIgd2lkdGg9IjI4Ij4mI3hhOwkgIDxzdHlsZSB0eXBlPSJ0ZXh0L2NzcyI+LnN0MCB7IHN0b3AtY29sb3I6IHJnYig5MSwgMTE1LCAxMzkpOyB9IC5zdDEgeyBzdG9wLWNvbG9yOiByZ2IoMzQsIDUzLCA3Mik7IH0gPC9zdHlsZT4mI3hhOwk8ZGVmcz4mI3hhOwkJPGxpbmVhckdyYWRpZW50IGdyYWRpZW50VW5pdHM9InVzZXJTcGFjZU9uVXNlIiB5Mj0iMjQuOTU0IiB4Mj0iMjUuMjEyIiB5MT0iMy42MjUiIHgxPSIzLjM3OSIgaWQ9IkEiPiYjeGE7CQkJPHN0b3AgY2xhc3M9InN0MCIvPiYjeGE7CQkJPHN0b3AgY2xhc3M9InN0MSIgb2Zmc2V0PSIxIi8+JiN4YTsJCTwvbGluZWFyR3JhZGllbnQ+JiN4YTsJPC9kZWZzPiYjeGE7CTxwYXRoIGZpbGw9InVybCgjQSkiIGQ9Ik0tLjA2MiAyNS4wMzNjLS4yOTEuMjkzLS40MzguNjAzLS40MzguOTMxLjAwMi4xODYuMDQyLjM2OS4xMTcuNTM5cy4xODUuMzIyLjMyMS40NDhjLjEyNi4xMzcuMjc5LjI0Ni40NDguMzIxcy4zNTMuMTE1LjUzOS4xMTdjLjMyOCAwIC42MzgtLjE0Ny45MzEtLjQzOGwzLjg5MS0zLjg5MWMxLjEzMy45ODcgMi40MTEgMS40NiAzLjgzNSAxLjQyNSAxLjQyNi0uMDc0IDIuNjY3LS42NCAzLjcyNi0xLjcwMWwxLjI2MS0xLjI1OWMuMjkzLS4yOTMuNDM4LS42MDMuNDM4LS45MzEgMC0uMzY2LS4xNDYtLjY5NC0uNDM4LS45ODdsLTcuMTI0LTcuMTIyYTEuMzYgMS4zNiAwIDAgMC0uOTg1LS40MzhjLS4zNjUgMC0uNjk0LjE0Ni0uOTg3LjQzOGwtMS4yNTkgMS4yNTljLTEuMDU5IDEuMDYxLTEuNjA4IDIuMjg1LTEuNjQ1IDMuNjcyLS4wNzIgMS4zNTIuMzQ3IDIuNTc2IDEuMjYxIDMuNjcyem0xMS4yOS00LjMyOWMtLjU4Ni41NDktMS4yNDMuODIyLTEuOTczLjgyMnMtMS4zODktLjI3My0xLjk3My0uODIybC0xLjA5Ni0xLjA5NmMtLjU0OS0uNTg0LS44MjItMS4yNDEtLjgyMi0xLjk3M3MuMjc0LTEuMzg3LjgyMi0xLjk3M2wuMjcyLS4yNzRMMTEuNSAyMC40M2wtLjI3NC4yNzN6bTIuNjMtNC44NzZjLjEyNi4xMzYuMjc4LjI0NS40NDcuMzIxYTEuMzYgMS4zNiAwIDAgMCAuNTM4LjExN2MuMzMgMCAuNjQtLjE0NS45MzMtLjQzOGwyLjUxOC0yLjUyMSAxLjA5NiAxLjA5NmMuMTI2LjEzNi4yNzkuMjQ2LjQ0OC4zMjFzLjM1My4xMTUuNTM5LjExN2ExLjI1IDEuMjUgMCAwIDAgLjk4Ni0uNDM4bDEuMjYxLTEuMjA1YzEuMDU5LTEuMDU5IDEuNjI1LTIuMjY1IDEuNjk5LTMuNjE3YTUuNjcgNS42NyAwIDAgMC0xLjE1Mi0zLjc4bDMuODkxLTMuODkxQTEuMzYgMS4zNiAwIDAgMCAyNy41LjkyNGMwLS4zNjUtLjE0NS0uNjk0LS40MzgtLjk4N1MyNi40NTgtLjUgMjYuMTMxLS41Yy0uMzY2IDAtLjY5NC4xNDctLjk4Ny40MzhsLTMuODg5IDMuODkzYy0xLjA3MS0uODk0LTIuNDQzLTEuMzQ2LTMuODM2LTEuMjYyLTEuNDI2LjA3NC0yLjY2NS42NC0zLjcyNiAxLjcwMWwtMS4yNjEgMS4yNTljLS4xMjguMTMtLjIyOC4yODQtLjI5NC40NTRzLS4wOTcuMzUxLS4wOS41MzNjLS4wMDMuMTczLjAzLjM0NS4wOTcuNTA1cy4xNjUuMzA0LjI4OS40MjVsMS4xNDkgMS4xNTItMi41MiAyLjQ2NWMtLjI5My4yOTMtLjQzOC42MjEtLjQzOC45ODdhMS4zNiAxLjM2IDAgMCAwIC4xMTcuNTM4Yy4wNzUuMTY5LjE4NS4zMjIuMzIxLjQ0Ny4xMjYuMTM2LjI3OS4yNDYuNDQ4LjMyMWExLjM2IDEuMzYgMCAwIDAgLjUzOS4xMTdjLjE4NS0uMDAyLjM2OC0uMDQyLjUzOC0uMTE3cy4zMjItLjE4NS40NDctLjMyMWwyLjQ2NS0yLjUyMS44NzcuODc3LTIuNTE4IDIuNDY1Yy0uMjkzLjI5My0uNDM4LjYyMS0uNDM4Ljk4N2ExLjM2IDEuMzYgMCAwIDAgLjExNy41MzhjLjA3NS4xNjkuMTg0LjMyMi4zMjEuNDQ3em0xLjUzNC05LjMxNmwuMjc0LS4zMjhhMi42OSAyLjY5IDAgMCAxIDEuOTczLS44MjJjLjczMSAwIDEuMzY5LjI3NCAxLjkxOC44MjJsMS4wOTYgMS4xNWMuNTg0LjU0OS44NzcgMS4yMDYuODc3IDEuOTczIDAgLjczMS0uMjkzIDEuMzcxLS44NzcgMS45MThsLS4yNzMuMjc0LTQuOTg3LTQuOTg1eiIvPiYjeGE7PC9zdmc+;" parent="1" vertex="1">
          <mxGeometry x="370" y="-284" width="28" height="28" as="geometry" />
        </mxCell>
        <mxCell id="x4RVm9M96yjkWzXjifI6-91" value="" style="image;sketch=0;aspect=fixed;html=1;points=[];align=center;fontSize=12;image=img/lib/mscae/Software_as_a_Service.svg;imageBackground=default;" parent="1" vertex="1">
          <mxGeometry x="201" y="-454" width="50" height="50" as="geometry" />
        </mxCell>
      </root>
    </mxGraphModel>
  </diagram>
</mxfile>
